<svg width="94" height="24" viewBox="0 0 94 24" fill="none" xmlns="http://www.w3.org/2000/svg">
<circle cx="11" cy="11" r="10" stroke="#4095D2" stroke-width="1.5"/>
<circle cx="11" cy="11" r="9.09091" fill="#4095D2" stroke="white"/>
<path d="M3.99307 15.0455L11 2.90909L18.0069 15.0455H3.99307Z" stroke="white"/>
<path d="M40.466 18H33.932C30.926 18 30.062 17.028 30.062 13.986V9.63C30.062 6.588 30.926 5.616 33.932 5.616H40.466C43.418 5.616 44.336 6.588 44.336 9.63V13.986C44.336 17.028 43.418 18 40.466 18ZM41.906 14.004V9.648C41.906 8.424 41.528 8.064 40.448 8.064H33.932C32.852 8.064 32.474 8.424 32.474 9.648V14.004C32.474 15.228 32.816 15.57 33.932 15.57H40.448C41.564 15.57 41.906 15.228 41.906 14.004ZM57.9644 18H46.2104V5.616H48.6404V15.552H57.9644V18ZM61.626 18H59.196V5.616H61.626V18ZM78.0909 18H75.8589V9.9L71.9349 18H69.6849L65.7789 9.9V18H63.5469V5.616H66.2109L70.8369 15.516L75.4809 5.616H78.0909V18ZM89.2294 13.986H82.3714V18H79.9414V5.616H89.2294C92.0734 5.616 92.9734 6.516 92.9734 9.378V10.494C92.9734 13.032 92.0734 13.986 89.2294 13.986ZM90.5614 10.512V9.378C90.5614 8.406 90.2014 8.064 89.2294 8.064H82.3714V11.772H89.2294C90.2014 11.772 90.5614 11.394 90.5614 10.512Z" fill="#3D99CC"/>
</svg>
